<mxfile host="app.diagrams.net" modified="2024-06-24T16:38:03.114Z" agent="Mozilla/5.0 (Windows NT 10.0; Win64; x64) AppleWebKit/537.36 (KHTML, like Gecko) Chrome/126.0.0.0 Safari/537.36" etag="JoxRbCZ7o6_AD_KsqTxO" version="24.6.2" type="google">
  <diagram name="Page-1" id="5JDlcRTJqLWwnUVIUZSo">
    <mxGraphModel dx="836" dy="469" grid="1" gridSize="10" guides="1" tooltips="1" connect="1" arrows="1" fold="1" page="1" pageScale="1" pageWidth="827" pageHeight="1169" math="0" shadow="0">
      <root>
        <mxCell id="0" />
        <mxCell id="1" parent="0" />
        <mxCell id="expfvXbfHzOSjdNjiR8g-22" value="" style="edgeStyle=orthogonalEdgeStyle;rounded=0;orthogonalLoop=1;jettySize=auto;html=1;" edge="1" parent="1" target="expfvXbfHzOSjdNjiR8g-7">
          <mxGeometry relative="1" as="geometry">
            <mxPoint x="330" y="60" as="sourcePoint" />
          </mxGeometry>
        </mxCell>
        <mxCell id="expfvXbfHzOSjdNjiR8g-23" value="" style="edgeStyle=orthogonalEdgeStyle;rounded=0;orthogonalLoop=1;jettySize=auto;html=1;" edge="1" parent="1" source="expfvXbfHzOSjdNjiR8g-7" target="expfvXbfHzOSjdNjiR8g-19">
          <mxGeometry relative="1" as="geometry" />
        </mxCell>
        <mxCell id="expfvXbfHzOSjdNjiR8g-7" value="generate word" style="rounded=0;whiteSpace=wrap;html=1;" vertex="1" parent="1">
          <mxGeometry x="270" y="90" width="120" height="60" as="geometry" />
        </mxCell>
        <mxCell id="expfvXbfHzOSjdNjiR8g-16" value="" style="edgeStyle=orthogonalEdgeStyle;rounded=0;orthogonalLoop=1;jettySize=auto;html=1;" edge="1" parent="1" source="expfvXbfHzOSjdNjiR8g-9" target="expfvXbfHzOSjdNjiR8g-10">
          <mxGeometry relative="1" as="geometry" />
        </mxCell>
        <mxCell id="expfvXbfHzOSjdNjiR8g-9" value="guess letter" style="rounded=0;whiteSpace=wrap;html=1;" vertex="1" parent="1">
          <mxGeometry x="270" y="290" width="120" height="60" as="geometry" />
        </mxCell>
        <mxCell id="expfvXbfHzOSjdNjiR8g-17" style="edgeStyle=orthogonalEdgeStyle;rounded=0;orthogonalLoop=1;jettySize=auto;html=1;entryX=0.25;entryY=0;entryDx=0;entryDy=0;" edge="1" parent="1" source="expfvXbfHzOSjdNjiR8g-10">
          <mxGeometry relative="1" as="geometry">
            <mxPoint x="225" y="570" as="targetPoint" />
            <Array as="points">
              <mxPoint x="225" y="430" />
            </Array>
          </mxGeometry>
        </mxCell>
        <mxCell id="expfvXbfHzOSjdNjiR8g-18" style="edgeStyle=orthogonalEdgeStyle;rounded=0;orthogonalLoop=1;jettySize=auto;html=1;" edge="1" parent="1" source="expfvXbfHzOSjdNjiR8g-10" target="expfvXbfHzOSjdNjiR8g-28">
          <mxGeometry relative="1" as="geometry">
            <mxPoint x="450" y="570" as="targetPoint" />
            <Array as="points">
              <mxPoint x="450" y="430" />
            </Array>
          </mxGeometry>
        </mxCell>
        <mxCell id="expfvXbfHzOSjdNjiR8g-10" value="if the letter is correct" style="rhombus;whiteSpace=wrap;html=1;" vertex="1" parent="1">
          <mxGeometry x="255" y="390" width="150" height="100" as="geometry" />
        </mxCell>
        <mxCell id="expfvXbfHzOSjdNjiR8g-24" value="" style="edgeStyle=orthogonalEdgeStyle;rounded=0;orthogonalLoop=1;jettySize=auto;html=1;" edge="1" parent="1" source="expfvXbfHzOSjdNjiR8g-19" target="expfvXbfHzOSjdNjiR8g-9">
          <mxGeometry relative="1" as="geometry" />
        </mxCell>
        <mxCell id="expfvXbfHzOSjdNjiR8g-19" value="give blinks as word" style="rounded=0;whiteSpace=wrap;html=1;" vertex="1" parent="1">
          <mxGeometry x="270" y="180" width="120" height="60" as="geometry" />
        </mxCell>
        <mxCell id="expfvXbfHzOSjdNjiR8g-42" style="edgeStyle=orthogonalEdgeStyle;rounded=0;orthogonalLoop=1;jettySize=auto;html=1;entryX=1;entryY=0.75;entryDx=0;entryDy=0;" edge="1" parent="1" source="expfvXbfHzOSjdNjiR8g-25" target="expfvXbfHzOSjdNjiR8g-33">
          <mxGeometry relative="1" as="geometry" />
        </mxCell>
        <mxCell id="expfvXbfHzOSjdNjiR8g-25" value="are all life lost" style="rhombus;whiteSpace=wrap;html=1;" vertex="1" parent="1">
          <mxGeometry x="385" y="710" width="110" height="80" as="geometry" />
        </mxCell>
        <mxCell id="expfvXbfHzOSjdNjiR8g-41" style="edgeStyle=orthogonalEdgeStyle;rounded=0;orthogonalLoop=1;jettySize=auto;html=1;entryX=0;entryY=0.75;entryDx=0;entryDy=0;" edge="1" parent="1" source="expfvXbfHzOSjdNjiR8g-26" target="expfvXbfHzOSjdNjiR8g-33">
          <mxGeometry relative="1" as="geometry">
            <Array as="points">
              <mxPoint x="230" y="945" />
            </Array>
          </mxGeometry>
        </mxCell>
        <mxCell id="expfvXbfHzOSjdNjiR8g-43" style="edgeStyle=orthogonalEdgeStyle;rounded=0;orthogonalLoop=1;jettySize=auto;html=1;entryX=0;entryY=0.5;entryDx=0;entryDy=0;" edge="1" parent="1" source="expfvXbfHzOSjdNjiR8g-26" target="expfvXbfHzOSjdNjiR8g-36">
          <mxGeometry relative="1" as="geometry">
            <Array as="points">
              <mxPoint x="180" y="30" />
            </Array>
          </mxGeometry>
        </mxCell>
        <mxCell id="expfvXbfHzOSjdNjiR8g-26" value="are all blink filled" style="rhombus;whiteSpace=wrap;html=1;" vertex="1" parent="1">
          <mxGeometry x="175" y="710" width="110" height="80" as="geometry" />
        </mxCell>
        <mxCell id="expfvXbfHzOSjdNjiR8g-30" value="" style="edgeStyle=orthogonalEdgeStyle;rounded=0;orthogonalLoop=1;jettySize=auto;html=1;" edge="1" parent="1" source="expfvXbfHzOSjdNjiR8g-27" target="expfvXbfHzOSjdNjiR8g-26">
          <mxGeometry relative="1" as="geometry" />
        </mxCell>
        <mxCell id="expfvXbfHzOSjdNjiR8g-27" value="replace letter with blink" style="rounded=0;whiteSpace=wrap;html=1;" vertex="1" parent="1">
          <mxGeometry x="170" y="570" width="120" height="60" as="geometry" />
        </mxCell>
        <mxCell id="expfvXbfHzOSjdNjiR8g-29" style="edgeStyle=orthogonalEdgeStyle;rounded=0;orthogonalLoop=1;jettySize=auto;html=1;entryX=0.5;entryY=0;entryDx=0;entryDy=0;" edge="1" parent="1" source="expfvXbfHzOSjdNjiR8g-28" target="expfvXbfHzOSjdNjiR8g-25">
          <mxGeometry relative="1" as="geometry" />
        </mxCell>
        <mxCell id="expfvXbfHzOSjdNjiR8g-28" value="lost the life" style="rounded=0;whiteSpace=wrap;html=1;" vertex="1" parent="1">
          <mxGeometry x="380" y="580" width="120" height="60" as="geometry" />
        </mxCell>
        <mxCell id="expfvXbfHzOSjdNjiR8g-33" value="END" style="rounded=1;whiteSpace=wrap;html=1;" vertex="1" parent="1">
          <mxGeometry x="280" y="900" width="120" height="60" as="geometry" />
        </mxCell>
        <mxCell id="expfvXbfHzOSjdNjiR8g-36" value="START" style="rounded=1;whiteSpace=wrap;html=1;" vertex="1" parent="1">
          <mxGeometry x="270" width="120" height="60" as="geometry" />
        </mxCell>
        <mxCell id="expfvXbfHzOSjdNjiR8g-44" style="edgeStyle=orthogonalEdgeStyle;rounded=0;orthogonalLoop=1;jettySize=auto;html=1;entryX=1.006;entryY=0.378;entryDx=0;entryDy=0;entryPerimeter=0;" edge="1" parent="1" source="expfvXbfHzOSjdNjiR8g-25" target="expfvXbfHzOSjdNjiR8g-36">
          <mxGeometry relative="1" as="geometry">
            <Array as="points">
              <mxPoint x="500" y="750" />
              <mxPoint x="500" y="23" />
            </Array>
          </mxGeometry>
        </mxCell>
      </root>
    </mxGraphModel>
  </diagram>
</mxfile>
